<svg width="1334" height="572" viewBox="0 0 1334 572" fill="none" xmlns="http://www.w3.org/2000/svg">
<path opacity="0.1" fill-rule="evenodd" clip-rule="evenodd" d="M870.967 221.338C870.629 221.549 870.286 221.758 869.938 221.968C1038.71 299.055 1156 469.331 1156 667C1156 937.067 937.067 1156 667 1156C396.933 1156 178 937.067 178 667C178 469.331 295.285 299.055 464.062 221.968C463.714 221.758 463.371 221.549 463.033 221.338C294.241 298.716 177 469.166 177 667C177 937.62 396.38 1157 667 1157C937.62 1157 1157 937.62 1157 667C1157 469.166 1039.76 298.716 870.967 221.338Z" fill="white"/>
<circle opacity="0.1" cx="667" cy="667" r="666.5" stroke="white"/>
</svg>
