<svg width="375" height="220" viewBox="0 0 375 220" fill="none" xmlns="http://www.w3.org/2000/svg">
<g opacity="0.1">
<mask id="path-1-inside-1_1223_861" fill="white">
<path fill-rule="evenodd" clip-rule="evenodd" d="M187.333 544.444C337.371 544.444 459 422.815 459 272.778C459 122.74 337.371 1.1111 187.333 1.1111C37.2959 1.1111 -84.3334 122.74 -84.3334 272.778C-84.3334 422.815 37.2959 544.444 187.333 544.444ZM187.333 545C337.677 545 459.556 423.122 459.556 272.778C459.556 122.434 337.677 0.555542 187.333 0.555542C36.9891 0.555542 -84.8889 122.434 -84.8889 272.778C-84.8889 423.122 36.9891 545 187.333 545Z"/>
</mask>
<path d="M458 272.778C458 422.263 336.818 543.444 187.333 543.444V545.444C337.923 545.444 460 423.367 460 272.778H458ZM187.333 2.1111C336.818 2.1111 458 123.293 458 272.778H460C460 122.188 337.923 0.111098 187.333 0.111098V2.1111ZM-83.3334 272.778C-83.3334 123.293 37.8482 2.1111 187.333 2.1111V0.111098C36.7437 0.111098 -85.3334 122.188 -85.3334 272.778H-83.3334ZM187.333 543.444C37.8482 543.444 -83.3334 422.263 -83.3334 272.778H-85.3334C-85.3334 423.367 36.7437 545.444 187.333 545.444V543.444ZM458.556 272.778C458.556 422.57 337.125 544 187.333 544V546C338.23 546 460.556 423.674 460.556 272.778H458.556ZM187.333 1.55554C337.125 1.55554 458.556 122.986 458.556 272.778H460.556C460.556 121.881 338.23 -0.444458 187.333 -0.444458V1.55554ZM-83.8889 272.778C-83.8889 122.986 37.5414 1.55554 187.333 1.55554V-0.444458C36.4369 -0.444458 -85.8889 121.881 -85.8889 272.778H-83.8889ZM187.333 544C37.5414 544 -83.8889 422.57 -83.8889 272.778H-85.8889C-85.8889 423.674 36.4369 546 187.333 546V544Z" fill="white" mask="url(#path-1-inside-1_1223_861)"/>
</g>
</svg>
