<svg width="24" height="24" viewBox="0 0 24 24" fill="none" xmlns="http://www.w3.org/2000/svg">
<g opacity="0.3">
<path d="M20.2011 2.04343L4.24881 6.99318C3.60373 7.19167 3.03836 7.58991 2.63422 8.13048C2.23009 8.67104 2.00808 9.32599 2.00022 10.0009C1.99235 10.6758 2.19903 11.3357 2.59046 11.8855C2.98188 12.4354 3.53782 12.8467 4.1781 13.0602L7.79849 14.2764L12.7129 9.36199C12.9004 9.17445 13.1548 9.06909 13.42 9.06909C13.6852 9.06909 13.9396 9.17445 14.1271 9.36199C14.3146 9.54952 14.42 9.80388 14.42 10.0691C14.42 10.3343 14.3146 10.5887 14.1271 10.7762L9.2127 15.6906L10.4289 19.311C10.6423 19.9513 11.0536 20.5073 11.6035 20.8988C12.1533 21.2902 12.8133 21.497 13.4882 21.4891C14.1631 21.4812 14.8181 21.2592 15.3587 20.855C15.8992 20.4508 16.2975 19.8854 16.4959 19.2403L21.4457 3.28794C21.4984 3.11499 21.5032 2.93095 21.4594 2.75551C21.4156 2.58007 21.325 2.41985 21.1971 2.29199C21.0692 2.16413 20.909 2.07345 20.7336 2.02967C20.5581 1.98588 20.3741 1.99064 20.2011 2.04343Z" fill="white"/>
</g>
</svg>
