<svg width="24" height="24" viewBox="0 0 24 24" fill="none" xmlns="http://www.w3.org/2000/svg">
<g opacity="0.3" clip-path="url(#clip0_723_145)">
<path d="M23.894 5.13461C23.7521 4.9038 23.4925 4.77297 23.2222 4.7964L22.0255 4.90065L23.1694 2.59473C23.3056 2.32009 23.2518 1.9892 23.0356 1.77184C22.8193 1.55448 22.4887 1.49907 22.2134 1.63388L19.1859 3.11659C17.3155 2.12912 14.9786 2.42223 13.3706 3.88703C12.0286 5.10953 11.3231 6.98955 11.4547 8.86437C7.94706 8.5128 4.97799 6.5051 3.22234 3.26106C3.10585 3.04585 2.88746 2.90509 2.64338 2.88779C2.39883 2.87078 2.16324 2.97915 2.01765 3.17589C0.928738 4.64692 0.852331 6.66386 1.70597 8.32319C1.47066 8.26375 1.22025 8.18332 0.942566 8.09055C0.704675 8.011 0.442408 8.06196 0.251486 8.22471C0.0605639 8.38746 -0.0312175 8.63829 0.00961074 8.88583C0.347393 10.9337 1.54158 12.5076 3.42802 13.4392C3.1824 13.5247 2.93176 13.5942 2.6769 13.6473C2.42368 13.7001 2.21865 13.8853 2.1406 14.132C2.06255 14.3785 2.12358 14.648 2.3003 14.8369C3.65879 16.289 5.62117 17.0037 7.01505 17.3466C5.4302 18.5877 3.7194 18.7954 1.23343 18.71C0.945659 18.7013 0.680534 18.8634 0.559549 19.1242C0.438612 19.3852 0.485534 19.6931 0.6788 19.9062C1.71511 21.0485 5.49072 22.3365 9.45972 22.4331C9.61671 22.4369 9.77683 22.4389 9.94033 22.4389C12.7271 22.4389 16.4101 21.8415 19.0537 19.1979C21.0547 17.197 22.3063 14.8935 22.7736 12.3516C23.151 10.2986 22.9125 8.65465 22.7978 7.86452C22.7894 7.80644 22.7804 7.7448 22.7731 7.69089L23.8925 5.88667C24.0353 5.65652 24.0359 5.36542 23.894 5.13461Z" fill="white"/>
</g>
<defs>
<clipPath id="clip0_723_145">
<rect width="24" height="24" fill="white"/>
</clipPath>
</defs>
</svg>
