<svg width="1934" height="568" viewBox="0 0 1934 568" fill="none" xmlns="http://www.w3.org/2000/svg">
<g opacity="0.12" clip-path="url(#clip0_1320_551)">
<path d="M0.5 275.28H53.84C61.46 275.28 68.79 272.38 74.35 267.17L308.7 47.5801" stroke="white" stroke-width="3" stroke-miterlimit="10"/>
<path d="M0.5 384.1H39.27C47.68 384.1 55.71 380.57 61.39 374.36L313.58 99.0801" stroke="white" stroke-width="3" stroke-miterlimit="10"/>
<path d="M161.98 185.06H369.49" stroke="white" stroke-width="3" stroke-miterlimit="10"/>
<path d="M0.5 483.77L201.2 413.24C207.06 411.18 212.13 407.36 215.72 402.29L471.2 42.0801" stroke="white" stroke-width="3" stroke-miterlimit="10"/>
<path d="M0.5 507.49H118.98C126.85 507.49 131.64 516.17 127.44 522.82L99.84 566.57" stroke="white" stroke-width="3" stroke-miterlimit="10"/>
<path d="M305.8 275.28H860.91C872.56 275.28 881.75 265.36 880.85 253.74L862.19 12.0703" stroke="white" stroke-width="3" stroke-miterlimit="10"/>
<path d="M400.2 560.08L635.18 12.0801" stroke="white" stroke-width="3" stroke-miterlimit="10"/>
<path d="M471.2 560.08L487.23 507.49H389.97C382.66 507.49 377.82 499.9 380.9 493.27L564.2 99.0703H181.45C176.9 99.0703 174.71 93.4803 178.06 90.3903L224.53 47.5703" stroke="white" stroke-width="3" stroke-miterlimit="10"/>
<path d="M659.2 27.0801L550.07 327.67C547.7 334.19 552.53 341.08 559.47 341.08H753.45C759.26 341.08 763.84 346.01 763.42 351.8L752.2 507.08L487.23 507.49" stroke="white" stroke-width="3" stroke-miterlimit="10"/>
<path d="M475.66 384.1H965.59C978.16 384.1 987.61 372.65 985.23 360.31L920.92 27.0801" stroke="white" stroke-width="3" stroke-miterlimit="10"/>
<path d="M625.71 341.08L697.2 57.0801" stroke="white" stroke-width="3" stroke-miterlimit="10"/>
<path d="M872 144L1066 144" stroke="white" stroke-width="3" stroke-miterlimit="10"/>
<path d="M879 227L1100 227" stroke="white" stroke-width="3" stroke-miterlimit="10"/>
<path d="M868.92 99.0801H1182.94" stroke="white" stroke-width="3" stroke-miterlimit="10"/>
<path d="M752.2 507.08H1023.06C1024.94 507.08 1026.77 506.55 1028.36 505.56L1154.73 426.51C1167.13 418.76 1172.13 403.19 1166.57 389.67L1119.54 275.29L1025.92 47.5801" stroke="white" stroke-width="3" stroke-miterlimit="10"/>
<path d="M1475.46 560.08L1180.88 92.5298C1178.2 88.2798 1179.09 82.6998 1182.96 79.4998L1210.04 57.0898" stroke="white" stroke-width="3" stroke-miterlimit="10"/>
<path d="M1533.06 560.08L1193.56 70.7197" stroke="white" stroke-width="3" stroke-miterlimit="10"/>
<path d="M1654.91 522.17L1258.61 42.0801" stroke="white" stroke-width="3" stroke-miterlimit="10"/>
<path d="M1720.54 341.08H1452.66C1443.52 341.08 1434.88 336.92 1429.19 329.77L1176.2 12.0801" stroke="white" stroke-width="3" stroke-miterlimit="10"/>
<path d="M1934 275.28H1654.91H1119.55" stroke="white" stroke-width="3" stroke-miterlimit="10"/>
<path d="M1399.79 12.0801L1593.57 185.07L1649.21 234.74C1652.88 238.01 1657.62 239.82 1662.53 239.82H1912.2" stroke="white" stroke-width="3" stroke-miterlimit="10"/>
<path d="M1892.21 176.58H1584.06" stroke="white" stroke-width="3" stroke-miterlimit="10"/>
<path d="M1312.83 12.0801L1393.94 93.2201C1397.69 96.9701 1402.78 99.0801 1408.09 99.0801H1851.22" stroke="white" stroke-width="3" stroke-miterlimit="10"/>
<path d="M1464.2 1.08008L1828.2 355.08" stroke="white" stroke-width="3" stroke-miterlimit="10"/>
</g>
<g filter="url(#filter0_f_1320_551)">
<path d="M165.5 426L199.428 413.324C206.967 410.507 213.481 405.482 218.119 398.904L238.5 370" stroke="url(#paint0_linear_1320_551)" stroke-width="2"/>
</g>
<g filter="url(#filter1_f_1320_551)">
<path d="M450 344.5L482.5 275" stroke="url(#paint1_linear_1320_551)" stroke-width="2"/>
</g>
<g filter="url(#filter2_f_1320_551)">
<path d="M231.5 185C229.5 185 185 185 163 185" stroke="url(#paint2_linear_1320_551)" stroke-width="2"/>
</g>
<g filter="url(#filter3_f_1320_551)">
<path d="M1743.5 275.5H1683" stroke="url(#paint3_linear_1320_551)" stroke-width="2"/>
</g>
<g filter="url(#filter4_f_1320_551)">
<path d="M1434.17 335.198L1386.55 275.045" stroke="url(#paint4_linear_1320_551)" stroke-width="2"/>
</g>
<defs>
<filter id="filter0_f_1320_551" x="163.15" y="367.424" width="78.1675" height="61.5131" filterUnits="userSpaceOnUse" color-interpolation-filters="sRGB">
<feFlood flood-opacity="0" result="BackgroundImageFix"/>
<feBlend mode="normal" in="SourceGraphic" in2="BackgroundImageFix" result="shape"/>
<feGaussianBlur stdDeviation="1" result="effect1_foregroundBlur_1320_551"/>
</filter>
<filter id="filter1_f_1320_551" x="447.094" y="272.576" width="38.3115" height="74.3472" filterUnits="userSpaceOnUse" color-interpolation-filters="sRGB">
<feFlood flood-opacity="0" result="BackgroundImageFix"/>
<feBlend mode="normal" in="SourceGraphic" in2="BackgroundImageFix" result="shape"/>
<feGaussianBlur stdDeviation="1" result="effect1_foregroundBlur_1320_551"/>
</filter>
<filter id="filter2_f_1320_551" x="161" y="182" width="72.5" height="6" filterUnits="userSpaceOnUse" color-interpolation-filters="sRGB">
<feFlood flood-opacity="0" result="BackgroundImageFix"/>
<feBlend mode="normal" in="SourceGraphic" in2="BackgroundImageFix" result="shape"/>
<feGaussianBlur stdDeviation="1" result="effect1_foregroundBlur_1320_551"/>
</filter>
<filter id="filter3_f_1320_551" x="1681" y="272.5" width="64.5" height="6" filterUnits="userSpaceOnUse" color-interpolation-filters="sRGB">
<feFlood flood-opacity="0" result="BackgroundImageFix"/>
<feBlend mode="normal" in="SourceGraphic" in2="BackgroundImageFix" result="shape"/>
<feGaussianBlur stdDeviation="1" result="effect1_foregroundBlur_1320_551"/>
</filter>
<filter id="filter4_f_1320_551" x="1383.76" y="272.424" width="53.1934" height="65.3942" filterUnits="userSpaceOnUse" color-interpolation-filters="sRGB">
<feFlood flood-opacity="0" result="BackgroundImageFix"/>
<feBlend mode="normal" in="SourceGraphic" in2="BackgroundImageFix" result="shape"/>
<feGaussianBlur stdDeviation="1" result="effect1_foregroundBlur_1320_551"/>
</filter>
<linearGradient id="paint0_linear_1320_551" x1="229.503" y1="379.004" x2="163.001" y2="424.503" gradientUnits="userSpaceOnUse">
<stop stop-color="white"/>
<stop offset="1" stop-color="white" stop-opacity="0"/>
</linearGradient>
<linearGradient id="paint1_linear_1320_551" x1="481.5" y1="275.5" x2="450.5" y2="340" gradientUnits="userSpaceOnUse">
<stop stop-color="white"/>
<stop offset="1" stop-color="white" stop-opacity="0"/>
</linearGradient>
<linearGradient id="paint2_linear_1320_551" x1="231.5" y1="185.5" x2="162.434" y2="185.5" gradientUnits="userSpaceOnUse">
<stop stop-color="white"/>
<stop offset="1" stop-color="white" stop-opacity="0"/>
</linearGradient>
<linearGradient id="paint3_linear_1320_551" x1="1683" y1="276" x2="1744" y2="276" gradientUnits="userSpaceOnUse">
<stop stop-color="white"/>
<stop offset="1" stop-color="white" stop-opacity="0"/>
</linearGradient>
<linearGradient id="paint4_linear_1320_551" x1="1386.55" y1="276.163" x2="1430.37" y2="332.738" gradientUnits="userSpaceOnUse">
<stop stop-color="white"/>
<stop offset="1" stop-color="white" stop-opacity="0"/>
</linearGradient>
<clipPath id="clip0_1320_551">
<rect width="1934" height="567.38" fill="white"/>
</clipPath>
</defs>
</svg>
